# xmcd
#
# Track frame offsets: 
#        150
#        18934
#        38557
#        58713
#        79633
#        96257
#        116628
#        130738
#        147396
#        161864
#        178286
#        193333
#        208939
#        225097
#        244336
#        262066
#        278797
#        297164
#
# Disc length: 4266 seconds
#
# Revision: 3
# Processed by: cddbd v1.5.2PL0 Copyright (c) Steve Scherf et al.
# Submitted via: ExactAudioCopy v0.90b4
#
DISCID=0e10a812
DTITLE=Beyoncé - I Am... Sasha Fierce [Deluxe Edition]
DYEAR=2008
DGENRE=Soul
TTITLE0=If I Were A Boy
TTITLE1=Halo
TTITLE2=Disappear
TTITLE3=Broken-Hearted Girl
TTITLE4=Ave Maria
TTITLE5=Smash Into You
TTITLE6=Satellites
TTITLE7=That's Why You're Beautiful
TTITLE8=Single Ladies (Put A Ring On It)
TTITLE9=Radio
TTITLE10=Diva
TTITLE11=Sweet Dreams
TTITLE12=Video Phone
TTITLE13=Hello
TTITLE14=Ego
TTITLE15=Scared Of Lonely
TTITLE16=Poison
TTITLE17=Video Phone (Ft. Lady Gaga) (Extended Remix)
EXTD=
EXTT0=
EXTT1=
EXTT2=
EXTT3=
EXTT4=
EXTT5=
EXTT6=
EXTT7=
EXTT8=
EXTT9=
EXTT10=
EXTT11=
EXTT12=
EXTT13=
EXTT14=
EXTT15=
EXTT16=
EXTT17=
PLAYORDER=
